<svg xmlns="http://www.w3.org/2000/svg" viewBox="0 0 512 512">
  <defs>
    <linearGradient id="grad1" x1="0%" y1="0%" x2="100%" y2="100%">
      <stop offset="0%" style="stop-color:#3b82f6;stop-opacity:1" />
      <stop offset="100%" style="stop-color:#7c3aed;stop-opacity:1" />
    </linearGradient>
  </defs>
  <rect width="512" height="512" rx="100" fill="url(#grad1)" />
  <path d="M256 120c-70.7 0-128 57.3-128 128 0 70.7 57.3 128 128 128s128-57.3 128-128c0-70.7-57.3-128-128-128zm0 216c-48.5 0-88-39.5-88-88s39.5-88 88-88 88 39.5 88 88-39.5 88-88 88z" fill="#ffffff" opacity="0.2"/>
  <path d="M360 200l-88 88-48-48-64 64" stroke="#ffffff" stroke-width="32" stroke-linecap="round" stroke-linejoin="round" fill="none"/>
  <circle cx="360" cy="200" r="16" fill="#ffffff"/>
</svg>
